<svg width="487" height="168" viewBox="0 0 487 168" fill="none" xmlns="http://www.w3.org/2000/svg">
<path d="M439.4 68.3C445.254 68.3 450 63.5542 450 57.7C450 51.8458 445.254 47.1 439.4 47.1C433.546 47.1 428.8 51.8458 428.8 57.7C428.8 63.5542 433.546 68.3 439.4 68.3Z" fill="#FF4500"/>
<path d="M288 102.9C293.2 102.9 296.2 99 296 95.2C295.9 93.2 295.7 91.9 295.5 90.9C292.3 77.1 281.1 66.9 267.8 66.9C252 66.9 239.2 81.2 239.2 98.8C239.2 116.4 252 130.7 267.8 130.7C277.7 130.7 284.8 127.1 289.9 121.4C292.4 118.6 291.9 114.3 288.9 112.2C286.4 110.5 283.3 111.1 281 113C278.8 114.9 274.6 118.7 267.8 118.7C259.8 118.7 253 111.8 251.5 102.7H288V102.9ZM267.7 79C274.9 79 281.1 84.6 283.4 92.3H252C254.3 84.5 260.5 79 267.7 79Z" fill="#222222"/>
<path d="M239.8 73.2C239.8 70.2 237.6 67.8 234.8 67.3C226.1 66 217.9 69.2 213.2 75.1V74.3C213.2 70.6 210.2 68.3 207.2 68.3C203.9 68.3 201.2 71 201.2 74.3V123.3C201.2 126.5 203.6 129.3 206.8 129.5C210.3 129.7 213.2 127 213.2 123.5V98.2C213.2 87 221.6 77.8 233.2 79.1C233.6 79.1 234 79.1 234.4 79.1C237.4 78.9 239.8 76.3 239.8 73.2Z" fill="#222222"/>
<path d="M445.4 79.6C445.4 76.3 442.7 73.6 439.4 73.6C436.1 73.6 433.4 76.3 433.4 79.6C433.4 79.8 433.4 121.6 433.4 123.5C433.4 126.8 436.1 129.5 439.4 129.5C442.7 129.5 445.4 126.8 445.4 123.5C445.4 121.7 445.4 79.9 445.4 79.6Z" fill="#222222"/>
<path d="M356.2 46.4C356.2 43.1 353.5 40.4 350.2 40.4C346.9 40.4 344.2 43.1 344.2 46.4V73.1C340.1 69 335 67 328.9 67C313.1 67 300.3 81.3 300.3 98.9C300.3 116.5 313.1 130.8 328.9 130.8C335 130.8 340.2 128.7 344.3 124.6C344.8 127.4 347.3 129.5 350.2 129.5C353.5 129.5 356.2 126.8 356.2 123.5V46.4ZM329 118.9C319.8 118.9 312.4 110 312.4 98.9C312.4 87.9 319.8 78.9 329 78.9C338.2 78.9 345.6 87.8 345.6 98.9C345.6 110 338.1 118.9 329 118.9Z" fill="#222222"/>
<path d="M418.8 46.4C418.8 43.1 416.1 40.4 412.8 40.4C409.5 40.4 406.8 43.1 406.8 46.4V73.1C402.7 69 397.6 67 391.5 67C375.7 67 362.9 81.3 362.9 98.9C362.9 116.5 375.7 130.8 391.5 130.8C397.6 130.8 402.8 128.7 406.9 124.6C407.4 127.4 409.9 129.5 412.8 129.5C416.1 129.5 418.8 126.8 418.8 123.5V46.4ZM391.5 118.9C382.3 118.9 374.9 110 374.9 98.9C374.9 87.9 382.3 78.9 391.5 78.9C400.7 78.9 408.1 87.8 408.1 98.9C408.1 110 400.7 118.9 391.5 118.9Z" fill="#222222"/>
<path d="M475.8 123.6V79H481.1C483.9 79 486.4 76.9 486.6 74C486.8 70.9 484.3 68.3 481.3 68.3H475.8V59.9C475.8 56.7 473.4 53.9 470.2 53.7C466.7 53.5 463.8 56.2 463.8 59.7V68.4H458.8C456 68.4 453.5 70.5 453.3 73.4C453.1 76.5 455.6 79.1 458.6 79.1H463.7V123.7C463.7 127 466.4 129.7 469.7 129.7C473.2 129.5 475.8 126.9 475.8 123.6Z" fill="#222222"/>
<path d="M83.8 167.6C130.081 167.6 167.6 130.081 167.6 83.8C167.6 37.5185 130.081 0 83.8 0C37.5185 0 0 37.5185 0 83.8C0 130.081 37.5185 167.6 83.8 167.6Z" fill="#FF4500"/>
<path d="M139.7 83.8C139.7 77 134.2 71.6 127.5 71.6C124.2 71.6 121.2 72.9 119 75C110.6 69 99.1 65.1 86.3 64.6L91.9 38.4L110.1 42.3C110.3 46.9 114.1 50.6 118.8 50.6C123.6 50.6 127.5 46.7 127.5 41.9C127.5 37.1 123.6 33.2 118.8 33.2C115.4 33.2 112.4 35.2 111 38.1L90.7 33.8C90.1 33.7 89.5 33.8 89.1 34.1C88.6 34.4 88.3 34.9 88.2 35.5L82 64.7C69 65.1 57.3 69 48.8 75.1C46.6 73 43.6 71.7 40.3 71.7C33.5 71.7 28.1 77.1999 28.1 83.8999C28.1 88.8999 31.1 93.1 35.3 95C35.1 96.2 35 97.3999 35 98.7C35 117.5 56.9 132.8 83.9 132.8C110.9 132.8 132.8 117.6 132.8 98.7C132.8 97.5 132.7 96.2 132.5 95C136.7 93.1 139.7 88.8 139.7 83.8ZM55.9 92.5C55.9 87.7 59.8 83.8 64.6 83.8C69.4 83.8 73.3 87.7 73.3 92.5C73.3 97.3 69.4 101.2 64.6 101.2C59.8 101.3 55.9 97.3 55.9 92.5ZM104.6 115.6C98.6 121.6 87.2 122 83.9 122C80.5 122 69.1 121.5 63.2 115.6C62.3 114.7 62.3 113.3 63.2 112.4C64.1 111.5 65.5 111.5 66.4 112.4C70.2 116.2 78.2 117.5 83.9 117.5C89.6 117.5 97.7 116.2 101.4 112.4C102.3 111.5 103.7 111.5 104.6 112.4C105.4 113.3 105.4 114.7 104.6 115.6ZM103 101.3C98.2 101.3 94.3 97.4 94.3 92.6C94.3 87.8 98.2 83.8999 103 83.8999C107.8 83.8999 111.7 87.8 111.7 92.6C111.7 97.3 107.8 101.3 103 101.3Z" fill="white"/>
</svg>
